<svg xmlns="http://www.w3.org/2000/svg" xmlns:xlink="http://www.w3.org/1999/xlink" viewBox="0 0 122.45 122.45"><defs><style>.cls-1{fill:#fff;}.cls-2,.cls-3,.cls-5,.cls-6,.cls-7{fill-rule:evenodd;}.cls-2{fill:url(#GradientFill_1);}.cls-3{fill:url(#GradientFill_1-2);}.cls-4{fill:url(#GradientFill_1-3);}.cls-5{fill:url(#GradientFill_1-4);}.cls-6{fill:url(#GradientFill_1-5);}.cls-7{fill:url(#GradientFill_1-6);}</style><linearGradient id="GradientFill_1" x1="57.61" y1="38.54" x2="71.37" y2="64.42" gradientUnits="userSpaceOnUse"><stop offset="0" stop-color="#fa5158"/><stop offset="1" stop-color="#fc9557"/></linearGradient><linearGradient id="GradientFill_1-2" x1="93.05" y1="60.91" x2="93.17" y2="61.14" xlink:href="#GradientFill_1"/><linearGradient id="GradientFill_1-3" x1="92.05" y1="60.61" x2="92.08" y2="60.65" xlink:href="#GradientFill_1"/><linearGradient id="GradientFill_1-4" x1="28.64" y1="55.78" x2="41.5" y2="79.98" gradientTransform="translate(-30.05 21.5) rotate(-26.37)" xlink:href="#GradientFill_1"/><linearGradient id="GradientFill_1-5" x1="83.91" y1="61.4" x2="94.85" y2="79.61" gradientTransform="translate(22.69 -22.79) rotate(15.56)" xlink:href="#GradientFill_1"/><linearGradient id="GradientFill_1-6" x1="60.25" y1="84.78" x2="61.66" y2="87.43" xlink:href="#GradientFill_1"/></defs><title>Asset 1</title><g id="Layer_2" data-name="Layer 2"><g id="Layer_1-2" data-name="Layer 1"><rect class="cls-1" width="122.45" height="122.45" rx="24.6"/><path class="cls-2" d="M92.1,63.3c.66-.5,3.3-2.47,3.92-3,.14-.14.46-.3.61-.43,0-5.26,0-11.94,0-18.61a2.12,2.12,0,0,0-1.56-2.33C88.63,37.85,84,36.23,81.15,34.09a16.77,16.77,0,0,0-10-3.79,11.53,11.53,0,0,0-9.91,5.48,11,11,0,0,0-9.69-5.49,17.14,17.14,0,0,0-10,3.76c-2.8,2.11-7.57,3.74-13.77,4.74a2.16,2.16,0,0,0-1.61,2.29c-.12,3.76-.18,6.11-.29,9.16.94-.55,1.9-1.09,2.88-1.63l1.9-1c0-.42,0-.87.08-1.3.07-1.08.13-2.16.2-3.24,5.86-1,10.37-2.62,13.38-4.76a13.17,13.17,0,0,1,7.52-2.78c4.34,0,6.92,3,6.9,7.79v.09q0,7.56,0,14.25,0,6.3,0,12c-2.5-1-5.56-2.49-10.72-2.06a12.84,12.84,0,0,1-1.95,2,26,26,0,0,1-2.6,1.84,14.72,14.72,0,0,0-1.29.89l.32.42.54.62c.54-.22,1.16-.45,1.85-.69,8.84-3.15,14.27,1.73,14.69,2a1.87,1.87,0,0,0,1.06.35c.77,0,1.22-.54,2-.76a14.42,14.42,0,0,1,2.71-.48,13.24,13.24,0,0,1,6.57,1.17h-.35c-3.7,0-6.76,1.15-8.67,3.31l-4.41-.19c-3.62-4.06-9-3.63-14.09-2.17,1.09,1.7,1.42,1.85,1.7,3.62,4.61-1,8.14-1.05,10,1.47a1.86,1.86,0,0,0,1.41.74l6,.26a1.9,1.9,0,0,0,1.62-.8c1.09-1.52,3.23-2.36,6-2.34a13.8,13.8,0,0,1,2.48.29A27.6,27.6,0,0,1,74.34,74c.26-1,.54-2,.84-2.92-4.37-1.51-8.69-2.29-12.62-1.32.13-3.81.25-7.84.39-12.09.14-4.51.31-9.31.48-14.42v-.07c.17-4.75,2.87-7.72,7.2-7.71a13.07,13.07,0,0,1,7.52,2.81c2.94,2.17,7.47,3.8,13.45,4.88l.29,10.93.13.19"/><path class="cls-3" d="M92.1,61.85c.69-.53,1.37-1.08,2-1.65"/><line class="cls-4" x1="92.06" y1="60.57" x2="92.06" y2="60.68"/><path class="cls-5" d="M19,64.88a9.6,9.6,0,0,1-4.1-1.43,13.16,13.16,0,0,1-3.19-3,5.41,5.41,0,0,1,1-2.69,12.1,12.1,0,0,1,2-2.23c2.1-1.81,7.16-4.2,9.79-5.59,5.18-2.73,10.78-3.92,16.35-1.7.5.2,1,.42,1.45.64a5.48,5.48,0,0,1,1.24.83,6.29,6.29,0,0,1,1.76,5.07,11.59,11.59,0,0,1-.89,2.88,25,25,0,0,1-1.43,2.65A19.85,19.85,0,0,0,41.55,63a9.47,9.47,0,0,0,1.73,1c.63.28,1.27.53,1.9.78a19.66,19.66,0,0,1,1.86.86,9.64,9.64,0,0,1,3.13,2.5c2.32,2.81,2.36,3.78.77,7.21a4.9,4.9,0,0,1-.26.56c-.1.17-.33.51-.68,1a52.27,52.27,0,0,1-4.69,4.34c-1.8,1.46-9.34,6.4-11.64,6.25a8.7,8.7,0,0,1-1.63-.3c-.58-.17-1.08-.33-1.52-.49a7.87,7.87,0,0,1-.36,1.11,2.38,2.38,0,0,1-.58.9l-1.06.14c-2.52.27-4.48-1.67-5.94-3.92-.95-7.86.74-15.12.29-21.92a4.85,4.85,0,0,0-.52-1.72,1.77,1.77,0,0,0-1.06.92,2.8,2.8,0,0,0-.1,1.47,1.61,1.61,0,0,1-1,.68,3.33,3.33,0,0,0-1.19.52ZM43.2,69.45a10.6,10.6,0,0,0-3.75-.66,11.16,11.16,0,0,0-3,.56,21.19,21.19,0,0,0-2.66,1.11,17.8,17.8,0,0,1-2.52,1.07c-.24,1.22-.48,2.56-.71,4s-.45,2.9-.66,4.29a20.24,20.24,0,0,0,3.21-1.34C34,78,35,77.44,35.83,76.86s1.73-1.17,2.56-1.75a15.88,15.88,0,0,0,4.74-4.5,1.35,1.35,0,0,0,.07-1.16ZM36.9,54.22a25.76,25.76,0,0,0-6.08,1.63A16.85,16.85,0,0,0,26,58.66a15.72,15.72,0,0,0,2.37,1.16,4.31,4.31,0,0,1,1.95,1.49,16.11,16.11,0,0,0,3.82-3.2A23.63,23.63,0,0,0,36.9,54.22Z"/><path class="cls-6" d="M74.31,67.09c.79-1.36,1.63-2.67,2.49-3.93s1.75-2.54,2.62-3.82c2-2.9,3.4-5.76,6-8.25a4.2,4.2,0,0,1,1.69-.92,3.48,3.48,0,0,1,.7.33c.2.13.4.25.59.39a2.83,2.83,0,0,0,.61.37,11.07,11.07,0,0,1,2.73,3,5.09,5.09,0,0,1,.27,1.65,3,3,0,0,1-.39,1.5c-.45.79-3,3-3.63,4a10.46,10.46,0,0,0-.72,1.24,8.12,8.12,0,0,0-.49,1.19A19.39,19.39,0,0,1,90.42,62c1.33-.49,2.51-1,3.52-1.47.79-.32,1.49-.63,2.11-.94s1.23-.59,1.85-.84,1.26-.47,1.91-.68c8.2-2.52,13.28,4.09,5.43,7-.84.33-1.68.62-2.54.89l-2.63.84c-2.41.8-5.13,2.61-7.53,3.49a1.19,1.19,0,0,0-.6.48,6.4,6.4,0,0,0,1.49,3.09,8.66,8.66,0,0,0,2.58,2,16.52,16.52,0,0,0,3.35,1.25C103,78,104,77,106,80.26c.2.3.42.63.69,1a5.55,5.55,0,0,1-2,3.12,8.28,8.28,0,0,1-3.47,1.41,31.39,31.39,0,0,1-4.45-1.17,33.36,33.36,0,0,1-6.48-4.25c-.51-.55-1-1.07-1.39-1.54-.51-.64-1-1.27-1.46-1.9a10.55,10.55,0,0,1-1.15-2,.45.45,0,0,0-.33-.31.92.92,0,0,1-.43-.24,9.47,9.47,0,0,0-3.16,1.82c-.92.8-1.82,1.62-2.69,2.46A32.34,32.34,0,0,1,77,81a7.35,7.35,0,0,1-3.19,1.39A2.28,2.28,0,0,1,73,82a3.64,3.64,0,0,1-.56-.55c-.18-.22-.34-.42-.52-.62-1-1.07-.44-1.28-.86-2.83C70.09,74.24,72.21,70.66,74.31,67.09Z"/><path class="cls-7" d="M52.14,88.45h.78l.41-1.28h.91L55,88.45h.88l-.81-1.34a2.18,2.18,0,0,0,1.09-.44,1,1,0,0,0,.4-.84.86.86,0,0,0-.32-.69,1.93,1.93,0,0,0-1.32-.36H53.32l-1.18,3.67Zm1.37-1.85.4-1.23h1a1.13,1.13,0,0,1,.73.18.41.41,0,0,1,.16.33.54.54,0,0,1-.22.44,1.58,1.58,0,0,1-1,.28Zm5.7,1.85h3.24l.19-.57H60.16l.31-1h2.17l.19-.57H60.66l.3-1h2.45l.19-.58H60.38l-1.17,3.67Zm6.67,0h.77L67.13,87h2.2l.19-.59H67.31l.32-1h2.49l.19-.59H67.05Z"/></g></g></svg>