<svg id="Layer_1" data-name="Layer 1" xmlns="http://www.w3.org/2000/svg" xmlns:xlink="http://www.w3.org/1999/xlink" viewBox="0 0 97.44 58.6"><defs><style>.cls-1,.cls-2,.cls-4,.cls-5{fill-rule:evenodd;}.cls-1{fill:url(#linear-gradient);}.cls-2{fill:url(#linear-gradient-2);}.cls-3{fill:none;}.cls-4{fill:url(#linear-gradient-3);}.cls-5{fill:url(#linear-gradient-4);}</style><linearGradient id="linear-gradient" x1="57.64" y1="85.39" x2="71.4" y2="59.51" gradientTransform="matrix(1, 0, 0, -1, 0, 124)" gradientUnits="userSpaceOnUse"><stop offset="0" stop-color="#fa5158"/><stop offset="1" stop-color="#fc9557"/></linearGradient><linearGradient id="linear-gradient-2" x1="93.04" y1="63" x2="93.16" y2="62.77" xlink:href="#linear-gradient"/><linearGradient id="linear-gradient-3" x1="-145.13" y1="-5.48" x2="-132.27" y2="-29.68" gradientTransform="matrix(0.9, -0.44, -0.44, -0.9, 147.99, -10.53)" xlink:href="#linear-gradient"/><linearGradient id="linear-gradient-4" x1="164.26" y1="138.38" x2="175.6" y2="119.51" gradientTransform="matrix(0.96, 0.27, 0.27, -0.96, -109.11, 149.88)" xlink:href="#linear-gradient"/></defs><title>Newbookref_icon</title><g id="Layer_2" data-name="Layer 2"><g id="Layer_1-2" data-name="Layer 1-2"><path class="cls-1" d="M92.1,63.39c.66-.5,3-.38,3.62-.91.14-.14.78-.41.93-.54,0-5.26,0-13.92,0-20.59A2.12,2.12,0,0,0,95.07,39q-9.66-1.62-13.92-4.84a16.65,16.65,0,0,0-10-3.79,11.51,11.51,0,0,0-9.91,5.48,11,11,0,0,0-9.69-5.49,17.08,17.08,0,0,0-10,3.76c-2.8,2.11-7.57,3.74-13.77,4.74a2.15,2.15,0,0,0-1.61,2.29c-.12,3.76-.18,6.11-.29,9.16.94-.55,1.9-1.09,2.88-1.63l1.9-1a7.15,7.15,0,0,1,.08-1.3c.07-1.08.13-2.16.2-3.24,5.86-1,10.37-2.62,13.38-4.76a13.14,13.14,0,0,1,7.52-2.78c4.34,0,6.92,3,6.9,7.79V69.75c-2.5-1-5.56-2.49-10.72-2.06a13.65,13.65,0,0,1-2,2,27.73,27.73,0,0,1-2.6,1.84,12.83,12.83,0,0,0-1.29.89l.32.42.54.62c.54-.22,1.16-.45,1.85-.69,8.84-3.15,14.27,1.73,14.69,2a1.92,1.92,0,0,0,1.06.35c.77,0,1.22-.54,2-.77a15.54,15.54,0,0,1,2.71-.48A13.37,13.37,0,0,1,71.92,75h-.35c-3.7,0-6.76,1.15-8.67,3.31l-4.41-.19c-3.62-4.06-9-3.63-14.09-2.17,1.09,1.7,1.42,1.85,1.7,3.62,4.61-1,8.14-1,10,1.47a1.84,1.84,0,0,0,1.41.74l6,.26a1.87,1.87,0,0,0,1.62-.8c1.09-1.52,3.23-2.36,6-2.34a14.85,14.85,0,0,1,2.48.29,27.8,27.8,0,0,1,.73-5.14c.26-1,.54-2,.84-2.92-4.37-1.51-8.69-2.29-12.62-1.32.13-3.81.25-7.84.39-12.09.14-4.51.31-9.31.48-14.42v-.07c.17-4.75,2.87-7.72,7.2-7.71a13,13,0,0,1,7.52,2.81c2.94,2.17,7.47,3.8,13.45,4.88l.29,10.93.13.19" transform="translate(-11.71 -30.37)"/><path class="cls-2" d="M92.1,61.94c.69-.53,1.37-1.09,2-1.66" transform="translate(-11.71 -30.37)"/><line class="cls-3" x1="80.35" y1="30.28" x2="80.35" y2="30.39"/><path class="cls-4" d="M19,65a9.56,9.56,0,0,1-4.1-1.44,13,13,0,0,1-3.19-3,5.42,5.42,0,0,1,1-2.68,11.48,11.48,0,0,1,2-2.23c2.1-1.81,7.16-4.2,9.79-5.59,5.18-2.73,10.78-3.93,16.35-1.7.5.2,1,.41,1.45.64a4.89,4.89,0,0,1,1.24.83,6.3,6.3,0,0,1,1.76,5.07,11.72,11.72,0,0,1-.89,2.88A25.09,25.09,0,0,1,43,60.4a19.73,19.73,0,0,0-1.43,2.69,10.24,10.24,0,0,0,1.73,1c.63.28,1.27.53,1.9.78a18.4,18.4,0,0,1,1.86.86,9.49,9.49,0,0,1,3.13,2.5c2.32,2.8,2.36,3.78.77,7.21a3.94,3.94,0,0,1-.26.55c-.1.17-.33.52-.68,1a50.75,50.75,0,0,1-4.69,4.35c-1.8,1.46-9.34,6.4-11.64,6.25A8.23,8.23,0,0,1,32,87.28c-.58-.16-1.08-.33-1.52-.48a8,8,0,0,1-.36,1.11,2.4,2.4,0,0,1-.58.9L28.52,89C26,89.22,24,87.28,22.58,85c-.95-7.86.74-15.12.29-21.92a4.65,4.65,0,0,0-.52-1.72,1.73,1.73,0,0,0-1.06.92,2.82,2.82,0,0,0-.1,1.47,1.64,1.64,0,0,1-1,.68A3.25,3.25,0,0,0,19,65Zm24.2,4.56a10.89,10.89,0,0,0-3.75-.66,11.36,11.36,0,0,0-3,.56,23,23,0,0,0-2.66,1.11,16.43,16.43,0,0,1-2.52,1.07c-.24,1.22-.48,2.56-.71,4s-.45,2.9-.66,4.29a19.6,19.6,0,0,0,3.21-1.34A26.62,26.62,0,0,0,35.83,77c.83-.58,1.73-1.17,2.56-1.75a16,16,0,0,0,4.74-4.5A1.37,1.37,0,0,0,43.2,69.53ZM36.9,54.31a25.54,25.54,0,0,0-6.08,1.63A16.78,16.78,0,0,0,26,58.75a16.24,16.24,0,0,0,2.37,1.16,4.22,4.22,0,0,1,1.95,1.49,16.54,16.54,0,0,0,3.82-3.2A24.49,24.49,0,0,0,36.9,54.31Z" transform="translate(-11.71 -30.37)"/><path class="cls-5" d="M73,69.15c.82-1.41,1.69-2.77,2.58-4.07l2.72-4c2.07-3,3.52-6,6.22-8.56a4.34,4.34,0,0,1,1.75-1A3.74,3.74,0,0,1,87,52c.21.14.41.26.61.41a3.11,3.11,0,0,0,.63.38,11.35,11.35,0,0,1,2.83,3.11,5.24,5.24,0,0,1,.28,1.71,3,3,0,0,1-.4,1.55c-.47.82-3.11,3.11-3.77,4.15a11.66,11.66,0,0,0-.74,1.29A8.84,8.84,0,0,0,86,65.78a19.93,19.93,0,0,1,3.77-1.91c1.38-.5,2.61-1,3.65-1.52.82-.33,1.55-.65,2.19-1s1.27-.61,1.92-.87,1.3-.48,2-.7c8.5-2.61,13.76,4.24,5.63,7.26-.87.34-1.74.64-2.64.92l-2.72.87c-2.5.83-5.32,2.7-7.81,3.62a1.2,1.2,0,0,0-.62.49,6.68,6.68,0,0,0,1.54,3.21,9,9,0,0,0,2.68,2.07A17.28,17.28,0,0,0,99,79.54c3.77.92,4.81-.12,6.88,3.26.21.31.44.66.72,1a5.76,5.76,0,0,1-2.07,3.23,8.53,8.53,0,0,1-3.6,1.46,31.56,31.56,0,0,1-4.61-1.21,34.43,34.43,0,0,1-6.72-4.4c-.53-.57-1-1.11-1.44-1.6-.53-.66-1-1.32-1.52-2a11.22,11.22,0,0,1-1.19-2.07.46.46,0,0,0-.34-.32,1.11,1.11,0,0,1-.45-.25,9.89,9.89,0,0,0-3.27,1.88Q80,79.84,78.6,81.14a33.81,33.81,0,0,1-2.78,2.43A7.57,7.57,0,0,1,72.51,85a2.5,2.5,0,0,1-.84-.4,4.46,4.46,0,0,1-.58-.57c-.18-.23-.35-.44-.53-.65-1-1.11-.46-1.32-.9-2.93C68.66,76.56,70.86,72.85,73,69.15Z" transform="translate(-11.71 -30.37)"/></g></g></svg>